<svg viewBox="0 0 800 600" xmlns="http://www.w3.org/2000/svg">
  <!-- Background elements -->
  <defs>
    <!-- Gradients -->
    <linearGradient id="bgGradient" x1="0%" y1="0%" x2="100%" y2="100%">
      <stop offset="0%" stop-color="#0A0E17" stop-opacity="1" />
      <stop offset="100%" stop-color="#141D2F" stop-opacity="1" />
    </linearGradient>
    
    <linearGradient id="blueGreen" x1="0%" y1="0%" x2="100%" y2="0%">
      <stop offset="0%" stop-color="#3B82F6" />
      <stop offset="100%" stop-color="#10B981" />
    </linearGradient>
    
    <linearGradient id="tokenGlow" x1="0%" y1="0%" x2="100%" y2="100%">
      <stop offset="0%" stop-color="#3B82F6" stop-opacity="0.3" />
      <stop offset="100%" stop-color="#10B981" stop-opacity="0.3" />
    </linearGradient>
    
    <!-- Filter for glow effect -->
    <filter id="glow" x="-50%" y="-50%" width="200%" height="200%">
      <feGaussianBlur stdDeviation="5" result="blur" />
      <feComposite in="SourceGraphic" in2="blur" operator="over" />
    </filter>
    
    <!-- Circuit pattern -->
    <pattern id="circuitPattern" patternUnits="userSpaceOnUse" width="100" height="100" patternTransform="scale(0.5) rotate(0)">
      <path d="M30,10 L70,10 M50,10 L50,30 M30,30 L70,30 M30,50 L50,50 M50,50 L50,70 M30,70 L70,70 M30,30 L30,70 M70,30 L70,50"
            stroke="#3B82F6" stroke-width="1" fill="none" stroke-opacity="0.2"/>
      <circle cx="50" cy="10" r="3" fill="#10B981" fill-opacity="0.2"/>
      <circle cx="30" cy="30" r="3" fill="#10B981" fill-opacity="0.2"/>
      <circle cx="70" cy="30" r="3" fill="#10B981" fill-opacity="0.2"/>
      <circle cx="30" cy="50" r="3" fill="#10B981" fill-opacity="0.2"/>
      <circle cx="50" cy="50" r="3" fill="#10B981" fill-opacity="0.2"/>
      <circle cx="30" cy="70" r="3" fill="#10B981" fill-opacity="0.2"/>
      <circle cx="70" cy="70" r="3" fill="#10B981" fill-opacity="0.2"/>
    </pattern>
  </defs>
  
  <!-- Background -->
  <rect width="800" height="600" fill="url(#bgGradient)" />
  <rect width="800" height="600" fill="url(#circuitPattern)" />
  
  <!-- Central token element -->
  <g transform="translate(400, 300)">
    <!-- Outer security rings -->
    <circle cx="0" cy="0" r="220" fill="none" stroke="url(#blueGreen)" stroke-width="4" stroke-dasharray="10,5" opacity="0.7">
      <animateTransform attributeName="transform" attributeType="XML" type="rotate" from="0" to="360" dur="120s" repeatCount="indefinite" />
    </circle>
    
    <circle cx="0" cy="0" r="180" fill="none" stroke="url(#blueGreen)" stroke-width="3" stroke-dasharray="8,4" opacity="0.6">
      <animateTransform attributeName="transform" attributeType="XML" type="rotate" from="360" to="0" dur="100s" repeatCount="indefinite" />
    </circle>
    
    <circle cx="0" cy="0" r="140" fill="none" stroke="url(#blueGreen)" stroke-width="2" stroke-dasharray="6,3" opacity="0.5">
      <animateTransform attributeName="transform" attributeType="XML" type="rotate" from="0" to="360" dur="80s" repeatCount="indefinite" />
    </circle>
    
    <!-- Security mechanism visualizations - Repositioned with more spacing -->
    
    <!-- Anti-pump shield -->
    <g transform="translate(-75, -75)" filter="url(#glow)">
      <rect x="-35" y="-35" width="70" height="70" rx="10" fill="rgba(59, 130, 246, 0.1)" stroke="#3B82F6" stroke-width="2" />
      <path d="M0,0 L0,30 L30,15 Z" fill="#3B82F6" transform="translate(-15, -15)" />
      <text x="0" y="45" font-family="Arial" font-size="10" fill="white" text-anchor="middle">PUMP-AND-DUMP</text>
      <text x="0" y="60" font-family="Arial" font-size="10" fill="white" text-anchor="middle">PROTECTION</text>
    </g>
    
    <!-- Liquidity assurance -->
    <g transform="translate(75, -75)" filter="url(#glow)">
      <rect x="-35" y="-35" width="70" height="70" rx="10" fill="rgba(16, 185, 129, 0.1)" stroke="#10B981" stroke-width="2" />
      <circle cx="0" cy="0" r="20" fill="none" stroke="#10B981" stroke-width="2" />
      <path d="M-10,-10 L10,10 M-10,10 L10,-10" stroke="#10B981" stroke-width="2" />
      <text x="0" y="45" font-family="Arial" font-size="10" fill="white" text-anchor="middle">LIQUIDITY</text>
      <text x="0" y="60" font-family="Arial" font-size="10" fill="white" text-anchor="middle">ASSURANCE</text>
    </g>
    
    <!-- Growth mechanism -->
    <g transform="translate(-75, 75)" filter="url(#glow)">
      <rect x="-35" y="-35" width="70" height="70" rx="10" fill="rgba(59, 130, 246, 0.1)" stroke="#3B82F6" stroke-width="2" />
      <path d="M-20,10 L-10,0 L0,5 L10,-5 L20,-15" fill="none" stroke="#3B82F6" stroke-width="2" stroke-linecap="round" />
      <circle cx="-20" cy="10" r="3" fill="#3B82F6" />
      <circle cx="-10" cy="0" r="3" fill="#3B82F6" />
      <circle cx="0" cy="5" r="3" fill="#3B82F6" />
      <circle cx="10" cy="-5" r="3" fill="#3B82F6" />
      <circle cx="20" cy="-15" r="3" fill="#3B82F6" />
      <text x="0" y="45" font-family="Arial" font-size="10" fill="white" text-anchor="middle">GROWTH</text>
      <text x="0" y="60" font-family="Arial" font-size="10" fill="white" text-anchor="middle">MECHANISM</text>
    </g>
    
    <!-- Referral system -->
    <g transform="translate(75, 75)" filter="url(#glow)">
      <rect x="-35" y="-35" width="70" height="70" rx="10" fill="rgba(16, 185, 129, 0.1)" stroke="#10B981" stroke-width="2" />
      <circle cx="0" cy="-10" r="10" fill="none" stroke="#10B981" stroke-width="2" />
      <circle cx="-15" cy="10" r="7" fill="none" stroke="#10B981" stroke-width="2" />
      <circle cx="15" cy="10" r="7" fill="none" stroke="#10B981" stroke-width="2" />
      <line x1="0" y1="0" x2="-15" y2="3" stroke="#10B981" stroke-width="1" />
      <line x1="0" y1="0" x2="15" y2="3" stroke="#10B981" stroke-width="1" />
      <text x="0" y="45" font-family="Arial" font-size="10" fill="white" text-anchor="middle">REFERRAL</text>
      <text x="0" y="60" font-family="Arial" font-size="10" fill="white" text-anchor="middle">SYSTEM</text>
    </g>
    
    <!-- Central token -->
    <circle cx="0" cy="0" r="50" fill="url(#tokenGlow)" stroke="url(#blueGreen)" stroke-width="3" filter="url(#glow)" />
    <text x="0" y="0" font-family="Arial" font-size="20" font-weight="bold" fill="white" text-anchor="middle" dominant-baseline="middle">1DEX</text>
    <text x="0" y="22" font-family="Arial" font-size="14" fill="white" text-anchor="middle" dominant-baseline="middle">SECURIO</text>
    
    <!-- Patent markers -->
    <g transform="translate(0, -180)">
      <rect x="-80" y="-20" width="160" height="40" rx="20" fill="rgba(255, 255, 255, 0.05)" stroke="url(#blueGreen)" stroke-width="2" />
      <text x="0" y="5" font-family="Arial" font-size="16" font-weight="bold" fill="white" text-anchor="middle" dominant-baseline="middle">PATENT-FILED TECHNOLOGY</text>
    </g>
    
    <!-- Data points moving along security rings -->
    <g>
      <circle cx="180" cy="0" r="5" fill="#3B82F6">
        <animateTransform attributeName="transform" attributeType="XML" type="rotate" from="0" to="360" dur="10s" repeatCount="indefinite" />
      </circle>
      
      <circle cx="140" cy="0" r="5" fill="#10B981">
        <animateTransform attributeName="transform" attributeType="XML" type="rotate" from="90" to="450" dur="8s" repeatCount="indefinite" />
      </circle>
      
      <circle cx="220" cy="0" r="5" fill="#3B82F6">
        <animateTransform attributeName="transform" attributeType="XML" type="rotate" from="180" to="540" dur="12s" repeatCount="indefinite" />
      </circle>
    </g>
  </g>
  
  <!-- Bottom label - moved up slightly to ensure visibility -->
  <text x="400" y="535" font-family="Arial" font-size="14" fill="#94A3B8" text-anchor="middle">REVOLUTIONARY TOKENOMICS ARCHITECTURE</text>
</svg>