<svg viewBox="0 0 600 400" xmlns="http://www.w3.org/2000/svg">
  <!-- Background -->
  <rect width="600" height="400" fill="#0A0E17" />
  
  <!-- Grid pattern -->
  <pattern id="grid" width="20" height="20" patternUnits="userSpaceOnUse">
    <path d="M 20 0 L 0 0 0 20" fill="none" stroke="#3B82F6" stroke-width="0.5" stroke-opacity="0.05"/>
  </pattern>
  <rect width="600" height="400" fill="url(#grid)" />
  
  <!-- Definitions -->
  <defs>
    <linearGradient id="blueGreen" x1="0%" y1="0%" x2="100%" y2="0%">
      <stop offset="0%" stop-color="#3B82F6" />
      <stop offset="100%" stop-color="#10B981" />
    </linearGradient>
    
    <filter id="glow" x="-20%" y="-20%" width="140%" height="140%">
      <feGaussianBlur stdDeviation="3" result="blur" />
      <feComposite in="SourceGraphic" in2="blur" operator="over" />
    </filter>
  </defs>
  
  <!-- Title -->
  <text x="300" y="40" font-family="Arial" font-size="24" font-weight="bold" fill="white" text-anchor="middle">5% REFERRAL REWARDS</text>
  
  <!-- Central user and network -->
  <g transform="translate(300, 200)">
    <!-- Central user node -->
    <circle cx="0" cy="0" r="35" fill="rgba(59, 130, 246, 0.2)" stroke="url(#blueGreen)" stroke-width="2" />
    
    <!-- User icon -->
    <circle cx="0" cy="-10" r="12" fill="#3B82F6" />
    <circle cx="0" cy="-10" r="5" fill="#0A0E17" />
    <path d="M -10,0 A 10,8 0 0,0 10,0 L 10,10 L -10,10 Z" fill="#3B82F6" />
    
    <text x="0" y="25" font-family="Arial" font-size="12" font-weight="bold" fill="white" text-anchor="middle">YOU</text>
    
    <!-- First level referrals -->
    <!-- Referral 1 -->
    <g transform="translate(-90, -70)">
      <circle cx="0" cy="0" r="20" fill="rgba(59, 130, 246, 0.1)" stroke="#3B82F6" stroke-width="1" />
      <circle cx="0" cy="-5" r="7" fill="#3B82F6" />
      <circle cx="0" cy="-5" r="3" fill="#0A0E17" />
      <path d="M -6,0 A 6,5 0 0,0 6,0 L 6,5 L -6,5 Z" fill="#3B82F6" />
      <text x="0" y="15" font-family="Arial" font-size="8" fill="white" text-anchor="middle">REFERRAL</text>
      
      <!-- Connection line -->
      <line x1="15" y1="15" x2="75" y2="55" stroke="#3B82F6" stroke-width="1" stroke-dasharray="3,3" />
      
      <!-- Incoming transaction arrows -->
      <g>
        <line x1="-30" y1="0" x2="-5" y2="0" stroke="#10B981" stroke-width="1" />
        <polygon points="-5,0 -12,-3 -12,3" fill="#10B981" />
        <text x="-35" y="-5" font-family="Arial" font-size="8" fill="#10B981" text-anchor="end">BUY</text>
      </g>
      
      <g transform="translate(0, 10)">
        <line x1="5" y1="0" x2="30" y2="0" stroke="#10B981" stroke-width="1" />
        <polygon points="30,0 23,-3 23,3" fill="#10B981" />
        <text x="35" y="-5" font-family="Arial" font-size="8" fill="#10B981" text-anchor="start">SELL</text>
      </g>
    </g>
    
    <!-- Referral 2 -->
    <g transform="translate(0, -100)">
      <circle cx="0" cy="0" r="20" fill="rgba(59, 130, 246, 0.1)" stroke="#3B82F6" stroke-width="1" />
      <circle cx="0" cy="-5" r="7" fill="#3B82F6" />
      <circle cx="0" cy="-5" r="3" fill="#0A0E17" />
      <path d="M -6,0 A 6,5 0 0,0 6,0 L 6,5 L -6,5 Z" fill="#3B82F6" />
      <text x="0" y="15" font-family="Arial" font-size="8" fill="white" text-anchor="middle">REFERRAL</text>
      
      <!-- Connection line -->
      <line x1="0" y1="20" x2="0" y2="65" stroke="#3B82F6" stroke-width="1" stroke-dasharray="3,3" />
      
      <!-- Incoming transaction arrows -->
      <g>
        <line x1="-30" y1="0" x2="-5" y2="0" stroke="#10B981" stroke-width="1" />
        <polygon points="-5,0 -12,-3 -12,3" fill="#10B981" />
        <text x="-35" y="-5" font-family="Arial" font-size="8" fill="#10B981" text-anchor="end">BUY</text>
      </g>
      
      <g transform="translate(0, 10)">
        <line x1="5" y1="0" x2="30" y2="0" stroke="#10B981" stroke-width="1" />
        <polygon points="30,0 23,-3 23,3" fill="#10B981" />
        <text x="35" y="-5" font-family="Arial" font-size="8" fill="#10B981" text-anchor="start">SELL</text>
      </g>
    </g>
    
    <!-- Referral 3 -->
    <g transform="translate(90, -70)">
      <circle cx="0" cy="0" r="20" fill="rgba(59, 130, 246, 0.1)" stroke="#3B82F6" stroke-width="1" />
      <circle cx="0" cy="-5" r="7" fill="#3B82F6" />
      <circle cx="0" cy="-5" r="3" fill="#0A0E17" />
      <path d="M -6,0 A 6,5 0 0,0 6,0 L 6,5 L -6,5 Z" fill="#3B82F6" />
      <text x="0" y="15" font-family="Arial" font-size="8" fill="white" text-anchor="middle">REFERRAL</text>
      
      <!-- Connection line -->
      <line x1="-15" y1="15" x2="-75" y2="55" stroke="#3B82F6" stroke-width="1" stroke-dasharray="3,3" />
      
      <!-- Incoming transaction arrows -->
      <g>
        <line x1="-30" y1="0" x2="-5" y2="0" stroke="#10B981" stroke-width="1" />
        <polygon points="-5,0 -12,-3 -12,3" fill="#10B981" />
        <text x="-35" y="-5" font-family="Arial" font-size="8" fill="#10B981" text-anchor="end">BUY</text>
      </g>
      
      <g transform="translate(0, 10)">
        <line x1="5" y1="0" x2="30" y2="0" stroke="#10B981" stroke-width="1" />
        <polygon points="30,0 23,-3 23,3" fill="#10B981" />
        <text x="35" y="-5" font-family="Arial" font-size="8" fill="#10B981" text-anchor="start">SELL</text>
      </g>
    </g>
    
    <!-- Second level referrals (smaller) -->
    <!-- Only showing a few for clarity -->
    <g transform="translate(-130, -110)">
      <circle cx="0" cy="0" r="15" fill="rgba(59, 130, 246, 0.05)" stroke="#3B82F6" stroke-width="1" />
      <circle cx="0" cy="-3" r="5" fill="#3B82F6" opacity="0.6" />
      <path d="M -4,0 A 4,3 0 0,0 4,0 L 4,3 L -4,3 Z" fill="#3B82F6" opacity="0.6" />
      <!-- Connection line -->
      <line x1="10" y1="10" x2="30" y2="30" stroke="#3B82F6" stroke-width="1" stroke-opacity="0.3" stroke-dasharray="2,2" />
    </g>
    
    <g transform="translate(-40, -140)">
      <circle cx="0" cy="0" r="15" fill="rgba(59, 130, 246, 0.05)" stroke="#3B82F6" stroke-width="1" />
      <circle cx="0" cy="-3" r="5" fill="#3B82F6" opacity="0.6" />
      <path d="M -4,0 A 4,3 0 0,0 4,0 L 4,3 L -4,3 Z" fill="#3B82F6" opacity="0.6" />
      <!-- Connection line -->
      <line x1="5" y1="10" x2="25" y2="30" stroke="#3B82F6" stroke-width="1" stroke-opacity="0.3" stroke-dasharray="2,2" />
    </g>
    
    <g transform="translate(40, -140)">
      <circle cx="0" cy="0" r="15" fill="rgba(59, 130, 246, 0.05)" stroke="#3B82F6" stroke-width="1" />
      <circle cx="0" cy="-3" r="5" fill="#3B82F6" opacity="0.6" />
      <path d="M -4,0 A 4,3 0 0,0 4,0 L 4,3 L -4,3 Z" fill="#3B82F6" opacity="0.6" />
      <!-- Connection line -->
      <line x1="-5" y1="10" x2="-25" y2="30" stroke="#3B82F6" stroke-width="1" stroke-opacity="0.3" stroke-dasharray="2,2" />
    </g>
    
    <g transform="translate(130, -110)">
      <circle cx="0" cy="0" r="15" fill="rgba(59, 130, 246, 0.05)" stroke="#3B82F6" stroke-width="1" />
      <circle cx="0" cy="-3" r="5" fill="#3B82F6" opacity="0.6" />
      <path d="M -4,0 A 4,3 0 0,0 4,0 L 4,3 L -4,3 Z" fill="#3B82F6" opacity="0.6" />
      <!-- Connection line -->
      <line x1="-10" y1="10" x2="-30" y2="30" stroke="#3B82F6" stroke-width="1" stroke-opacity="0.3" stroke-dasharray="2,2" />
    </g>
    
    <!-- Reward flows -->
    <g transform="translate(0, 50)" filter="url(#glow)">
      <rect x="-100" y="-25" width="200" height="50" rx="25" fill="rgba(16, 185, 129, 0.1)" stroke="#10B981" stroke-width="1" />
      <text x="0" y="0" font-family="Arial" font-size="16" font-weight="bold" fill="#10B981" text-anchor="middle" dominant-baseline="middle">5% COMMISSIONS</text>
      
      <!-- Flowing arrows from transactions to you -->
      <g transform="translate(-75, -70)">
        <path d="M 0,0 Q -10,30 -15,60" fill="none" stroke="#10B981" stroke-width="1" stroke-dasharray="3,2" />
        <polygon points="-15,60 -13,53 -18,53" fill="#10B981" />
      </g>
      
      <g transform="translate(0, -80)">
        <path d="M 0,0 Q 0,30 0,60" fill="none" stroke="#10B981" stroke-width="1" stroke-dasharray="3,2" />
        <polygon points="0,60 2,53 -2,53" fill="#10B981" />
      </g>
      
      <g transform="translate(75, -70)">
        <path d="M 0,0 Q 10,30 15,60" fill="none" stroke="#10B981" stroke-width="1" stroke-dasharray="3,2" />
        <polygon points="15,60 13,53 18,53" fill="#10B981" />
      </g>
    </g>
  </g>
  
  <!-- Income potential callout -->
  <g transform="translate(300, 330)">
    <rect x="-230" y="-25" width="460" height="50" rx="5" fill="rgba(59, 130, 246, 0.05)" stroke="#3B82F6" stroke-width="1" />
    
    <g transform="translate(-170, 0)">
      <text x="0" y="-8" font-family="Arial" font-size="12" fill="white" text-anchor="middle">3 REFERRALS</text>
      <text x="0" y="8" font-family="Arial" font-size="12" fill="#10B981" font-weight="bold" text-anchor="middle">$300-$900 / MONTH</text>
    </g>
    
    <g transform="translate(0, 0)">
      <text x="0" y="-8" font-family="Arial" font-size="12" fill="white" text-anchor="middle">9 ACTIVE TRADERS</text>
      <text x="0" y="8" font-family="Arial" font-size="12" fill="#10B981" font-weight="bold" text-anchor="middle">$500-$1,500 / MONTH</text>
    </g>
    
    <g transform="translate(170, 0)">
      <text x="0" y="-8" font-family="Arial" font-size="12" fill="white" text-anchor="middle">25+ TRADERS</text>
      <text x="0" y="8" font-family="Arial" font-size="12" fill="#10B981" font-weight="bold" text-anchor="middle">$1,000-$5,000+ / MONTH</text>
    </g>
  </g>
  
  <!-- Bottom text -->
  <text x="300" y="375" font-family="Arial" font-size="14" fill="white" text-anchor="middle">EARN FROM BOTH BUYING AND SELLING ACTIVITY</text>
  <text x="300" y="390" font-family="Arial" font-size="12" fill="#94A3B8" text-anchor="middle">CONNECTIONS NEVER EXPIRE - LIFETIME EARNING POTENTIAL</text>
</svg>